<?xml version="1.0" encoding="utf-8"?>
<!-- Svg Vector Icons : http://www.onlinewebfonts.com/icon -->
<!DOCTYPE svg PUBLIC "-//W3C//DTD SVG 1.1//EN" "http://www.w3.org/Graphics/SVG/1.1/DTD/svg11.dtd">
<svg version="1.1" xmlns="http://www.w3.org/2000/svg" xmlns:xlink="http://www.w3.org/1999/xlink" x="0px" y="0px" viewBox="0 0 1000 1000" enable-background="new 0 0 1000 1000" xml:space="preserve">
<metadata> Svg Vector Icons : http://www.onlinewebfonts.com/icon </metadata>
<g><path d="M904.8,862.2H95.2C48.2,862.2,10,824,10,777l0-468.7c0-47.1,38.2-85.2,85.2-85.2h21.3l0,0c0-23.5,19.1-42.6,42.6-42.6h42.6c23.5,0,42.6,19.1,42.6,42.6H287c0,0,24-2.7,42.6-21.3l42.6-42.6c0,0,16.6-21.3,42.6-21.3h170.4c28,0,42.6,21.3,42.6,21.3l42.6,42.6C689.1,220.4,713,223,713,223h191.7c47.1,0,85.2,38.2,85.2,85.2V777C990,824,951.8,862.2,904.8,862.2z M947.4,308.3c0-23.5-19.1-42.6-42.6-42.6l-196.4-0.3c-6.5-0.7-40.2-5.7-68-33.5l-45.4-45.4l-2.2-3.2c0,0-3.3-2.8-7.5-2.8H414.8c-3.3,0-8,3.8-9,4.9l-1.6,2l-44.5,44.4c-27.8,27.8-61.5,32.8-68,33.5l-88.4,0.1c-0.5,0-1,0.2-1.5,0.2h-42.6c-0.3,0-0.6-0.1-0.9-0.1l-63.1,0.1c-23.5,0-42.6,19.1-42.6,42.6V777c0,23.5,19.1,42.6,42.6,42.6h809.6c23.5,0,42.6-19.1,42.6-42.6L947.4,308.3z M500,777C370.6,777,265.7,672,265.7,542.6S370.6,308.3,500,308.3s234.3,104.9,234.3,234.3S629.4,777,500,777z M500,350.9c-105.9,0-191.7,85.8-191.7,191.7S394.1,734.3,500,734.3s191.7-85.8,191.7-191.7S605.9,350.9,500,350.9z M500,649.1c-58.8,0-106.5-47.7-106.5-106.5S441.2,436.1,500,436.1s106.5,47.7,106.5,106.5S558.8,649.1,500,649.1z M500,478.7c-35.3,0-63.9,28.6-63.9,63.9c0,35.3,28.6,63.9,63.9,63.9c35.3,0,63.9-28.6,63.9-63.9C563.9,507.3,535.3,478.7,500,478.7z M201.7,393.5h-85.2c-11.8,0-21.3-9.5-21.3-21.3v-42.6c0-11.8,9.5-21.3,21.3-21.3h85.2c11.8,0,21.3,9.5,21.3,21.3v42.6C223,384,213.5,393.5,201.7,393.5z"/></g>
</svg>